<svg width="54" height="54" viewBox="0 0 54 54" fill="none" xmlns="http://www.w3.org/2000/svg">
<path d="m18.63,15.95c3.42,-2.76 7.26,-4.62 11.42,-5.53c3.67,-0.81 7.11,-0.44 10.23,1.09c2.83,1.39 5.9,3.33 7.19,7.14c0.73,2.17 1.32,4.55 0.65,7.3c0,0 3.6,2.9 4.36,3.44c0.18,0.13 0.32,0.22 0.46,0.36c0.28,0.26 0.54,0.54 0.77,0.85c0.29,0.39 0.36,0.8 0.22,1.15c-0.09,0.21 -0.25,0.39 -0.45,0.5c-0.17,0.1 -0.36,0.17 -0.55,0.2c-0.19,0.03 -0.38,0.04 -0.57,0.04c-0.13,0.01 -0.25,0.01 -0.37,0.02c-0.48,0.05 -0.92,0 -1.41,-0.05c-0.8,-0.09 -3.51,-0.27 -4.31,-0.2c-0.2,0.01 -0.4,0.07 -0.57,0.17c-0.17,0.09 -0.32,0.23 -0.44,0.39c-0.49,0.63 -1.04,1.21 -1.64,1.74c-3.21,2.81 -7.1,4.78 -11.55,5.85c-3.41,0.81 -6.46,0.84 -9.31,0.07c-2.79,-0.75 -4.9,-2.22 -6.46,-4.5c-2.35,-3.43 -3.13,-7.28 -2.39,-11.78c0.56,-3.4 2.15,-6.18 4.72,-8.25zm27.64,9.16c0.28,-1.45 0.15,-2.95 -0.36,-4.34c-0.4,-1.11 -0.87,-2.19 -1.42,-3.24c-0.33,-0.64 -0.79,-1.22 -1.34,-1.71c-3.86,-3.24 -7.95,-4.37 -12.5,-3.45c-2.66,0.53 -5.21,1.51 -7.53,2.9c-1.31,0.78 -2.55,1.67 -3.71,2.66c-1.65,1.39 -2.75,3.29 -3.28,5.63c-1,4.45 -0.31,8.23 2.12,11.54c1.2,1.65 2.85,2.73 5.03,3.31c2.14,0.57 4.42,0.61 6.95,0.12c4.7,-0.91 8.76,-2.9 12.06,-5.91c0.5,-0.47 0.93,-1.01 1.29,-1.6c0.45,-0.71 1.03,-1.32 2.23,-1.01c0.99,0.26 3.88,0.75 5.07,0.52c-0.22,-0.27 0.21,0.26 0,0c-0.76,-0.6 -3.6,-2.74 -4.13,-3.36c-0.49,-0.58 -0.64,-1.22 -0.48,-2.06z" fill="#fff" />
<path d="m18.15,24.01c-2.69,-0.93 -5.43,-1.21 -8.16,-0.85c-2.4,0.32 -4.41,1.31 -5.97,2.93c-1.42,1.47 -2.86,3.33 -2.81,5.94c0.03,1.48 0.2,3.06 1.21,4.59c0,0 -1.55,2.56 -1.89,3.06c-0.08,0.12 -0.15,0.2 -0.2,0.32c-0.12,0.22 -0.21,0.45 -0.29,0.68c-0.08,0.31 -0.04,0.58 0.12,0.76c0.1,0.11 0.24,0.18 0.38,0.2c0.13,0.03 0.26,0.03 0.39,0c0.12,-0.02 0.24,-0.06 0.35,-0.1c0.08,-0.02 0.16,-0.05 0.23,-0.07c0.3,-0.08 0.56,-0.2 0.85,-0.34c0.46,-0.23 2.07,-0.94 2.57,-1.08c0.12,-0.03 0.26,-0.04 0.38,-0.02c0.13,0.02 0.25,0.07 0.35,0.15c0.44,0.27 0.9,0.5 1.39,0.69c2.56,1 5.36,1.34 8.3,1.01c2.25,-0.26 4.1,-0.92 5.67,-2.01c1.53,-1.08 2.49,-2.44 2.94,-4.18c0.67,-2.6 0.3,-5.12 -1.14,-7.7c-1.09,-1.95 -2.66,-3.29 -4.67,-3.98z" fill="#fff" />
</svg>
