<svg width="24" height="24" viewBox="0 0 24 24" fill="none" xmlns="http://www.w3.org/2000/svg">
    <g id="File / Files">
        <path id="Vector"
              d="M10 5.99998V4.59998C10 4.03992 10 3.75993 10.109 3.54602C10.2049 3.35786 10.3577 3.20487 10.5459 3.10899C10.7598 3 11.0396 3 11.5996 3H16.3369C16.5815 3 16.7038 3 16.8189 3.02763C16.9209 3.05213 17.0189 3.09251 17.1084 3.14734C17.2093 3.20918 17.2958 3.29568 17.4688 3.46863L20.5315 6.53137C20.7044 6.70432 20.7907 6.7908 20.8525 6.89172C20.9073 6.98119 20.9482 7.07875 20.9727 7.18079C21.0003 7.29587 21 7.41813 21 7.66272V16.4C21 16.96 20.9996 17.2401 20.8906 17.454C20.7948 17.6422 20.6425 17.7951 20.4544 17.891C20.2405 18 19.9601 18 19.4 18H14M13.9996 11H10.5996C10.0396 11 9.75981 11 9.5459 10.891C9.35774 10.7951 9.20487 10.6422 9.10899 10.454C9 10.2401 9 9.96005 9 9.4V6M20.9996 8H17.5996C17.0396 8 16.7598 7.99998 16.5459 7.89099C16.3577 7.79512 16.2049 7.64218 16.109 7.45401C16 7.2401 16 6.96005 16 6.4V3M14 19.4V10.6627C14 10.4181 14.0003 10.2959 13.9727 10.1808C13.9482 10.0787 13.9073 9.98119 13.8525 9.89172C13.7907 9.7908 13.7044 9.70432 13.5315 9.53137L10.4688 6.46863C10.2958 6.29568 10.2093 6.20918 10.1084 6.14734C10.0189 6.09251 9.92092 6.05213 9.81889 6.02763C9.7038 6 9.58146 6 9.33687 6H4.59961C4.03956 6 3.75981 6 3.5459 6.10899C3.35774 6.20487 3.20487 6.35786 3.10899 6.54602C3 6.75993 3 7.03992 3 7.59998V19.4C3 19.96 3 20.2401 3.10899 20.454C3.20487 20.6422 3.35774 20.7951 3.5459 20.891C3.75981 21 4.03956 21 4.59961 21H12.3996C12.9597 21 13.2405 21 13.4544 20.891C13.6425 20.7951 13.7948 20.6422 13.8906 20.454C13.9996 20.2401 14 19.96 14 19.4Z"
              stroke="#212028" stroke-width="2" stroke-linecap="round" stroke-linejoin="round"/>
    </g>
</svg>
