<svg width="61" height="60" viewBox="0 0 61 60" fill="none" xmlns="http://www.w3.org/2000/svg">
<g clip-path="url(#clip0_3336_7665)">
<path d="M0.886739 29.3973C0.886739 23.7885 0.901906 18.1788 0.877096 12.571C0.870261 10.977 0.730781 9.38395 0.681414 7.78966C0.551793 3.57958 3.45586 0.489612 7.96472 0.401376C17.3629 0.217343 26.7602 -0.184034 36.164 0.134874C37.1592 0.168655 38.1585 0.0993231 39.1529 0.142937C39.7554 0.166664 40.3532 0.264392 40.9319 0.433875C41.1853 0.506964 41.4086 0.659442 41.5686 0.868711C41.7283 1.07798 41.8162 1.33289 41.8192 1.59578C41.8567 2.16628 41.6504 2.67229 41.1357 2.88557C40.5002 3.14553 39.8349 3.32564 39.1552 3.42179C38.5509 3.47881 37.943 3.47997 37.3387 3.42529C29.499 3.0905 21.6556 3.12983 13.8136 3.27075C11.6961 3.31956 9.58308 3.48688 7.48447 3.77193C6.17105 3.94361 4.96925 4.53355 4.46039 5.91179C4.23171 6.46608 4.10776 7.05766 4.0948 7.65678C4.15454 9.9393 4.29434 12.2199 4.407 14.5011C4.44523 15.2766 4.52065 16.0513 4.52925 16.8267C4.60875 23.9022 4.71558 30.9777 4.73508 38.0537C4.74723 42.4539 4.59986 46.854 4.57505 51.2547C4.60472 52.4164 4.69771 53.5758 4.85356 54.7277C4.93457 55.5061 5.369 55.9821 6.18596 56.0638C6.44419 56.089 6.69961 56.1772 6.95632 56.1775C9.3791 56.1793 11.8026 56.2072 14.2244 56.1523C17.2991 56.0819 20.3718 55.8669 23.4464 55.8457C30.9428 55.7953 38.4397 55.8014 45.9362 55.8225C48.058 55.8286 50.1792 55.9688 52.301 56.0373C53.0848 56.0893 53.8635 55.876 54.5104 55.4323C55.1575 54.9883 55.6349 54.3397 55.8656 53.5919C55.9587 53.3096 56.0048 53.0139 56.0025 52.7169C55.9737 50.4339 55.7808 48.143 55.9124 45.8704C56.3696 37.9814 56.3663 30.0873 56.3638 22.1917C56.3638 21.3721 56.3754 20.5515 56.4235 19.7337C56.4448 19.2597 56.5205 18.7897 56.6494 18.3328C56.7167 18.0792 56.8618 17.8529 57.0645 17.6854C57.2671 17.5179 57.5172 17.4175 57.78 17.3982C58.3899 17.3276 58.9514 17.483 59.2121 18.0537C59.4737 18.594 59.639 19.1754 59.701 19.772C59.8926 22.3951 60.0253 25.0228 60.1721 27.6493C60.6321 35.893 60.1625 44.1256 59.919 52.3609C59.8757 53.2216 59.7149 54.0725 59.441 54.89C59.1919 55.7431 58.7451 56.5264 58.1367 57.1766C57.5286 57.8267 56.7754 58.3256 55.9385 58.6335C54.321 59.2592 52.599 59.5725 50.864 59.5569C45.2754 59.5428 39.6866 59.5604 34.098 59.5536C31.9749 59.5511 29.8511 59.4667 27.7294 59.5032C22.7057 59.5922 17.6832 59.7432 12.6599 59.8461C10.6244 59.8877 8.58546 59.9346 6.55229 59.863C3.32065 59.749 1.27051 57.6276 1.22798 54.3702C1.11887 46.0463 1.0467 37.722 0.95961 29.3978L0.886739 29.3973Z" fill="#343434"/>
<path d="M24.2976 35.8313C24.3411 35.4549 24.4191 35.083 24.5307 34.7208C25.175 32.9404 25.8219 31.1596 26.5435 29.4095C26.8227 28.7772 27.1976 28.1911 27.6551 27.6718C35.029 18.9625 42.5224 10.36 50.6614 2.33944C50.9936 1.99937 51.3478 1.68113 51.7214 1.38674C52.7797 0.585308 53.8812 0.559902 54.9409 1.36612C55.5862 1.87388 56.1984 2.42213 56.7738 3.00754C57.789 4.00813 58.77 5.04247 59.7736 6.05466C60.6678 6.95642 60.4543 8.09191 59.7655 8.84317C59.2113 9.44821 58.6161 10.0154 58.0298 10.5902C51.2073 17.2802 44.3176 23.9044 37.5994 30.697C35.687 32.674 33.4921 34.359 31.0857 35.6977C29.9105 36.3398 28.7019 36.9213 27.5012 37.5161C27.1921 37.6726 26.8673 37.7964 26.5326 37.8859C25.0806 38.2582 24.2505 37.5955 24.2976 35.8313ZM33.6055 30.7013L51.2956 12.4686L48.6146 8.47104C42.544 14.9783 36.5703 21.3811 30.5078 27.88C31.5946 28.8705 32.6323 29.8159 33.6045 30.7013H33.6055ZM50.8073 6.4618L54.03 9.6988L56.5199 7.49718C55.4455 6.24348 54.4559 5.08838 53.4247 3.8846L50.8073 6.4618ZM28.947 30.4519C28.6212 31.2052 28.3784 31.7666 28.1392 32.3203L29.1202 33.4108L30.6169 32.5424L28.947 30.4519Z" fill="#343434"/>
</g>
<defs>
<clipPath id="clip0_3336_7665">
<rect width="60" height="60" fill="white" transform="translate(0.5)"/>
</clipPath>
</defs>
</svg>
