<svg width="60" height="60" viewBox="0 0 60 60" fill="none" xmlns="http://www.w3.org/2000/svg">
<g clip-path="url(#clip0_3336_9091)">
<path d="M50.8647 38.2887C50.2649 38.1428 49.4644 38.2229 49.058 39.4231C48.4797 41.1289 47.435 42.5094 46.4893 43.6349C43.7964 46.8401 40.2831 49.0917 36.0488 50.327C32.8495 51.2601 29.0452 52.0917 25.0855 51.1786C19.1803 49.8165 14.3741 46.4185 10.8009 41.0774C9.21344 38.7044 8.30224 36.4372 8.01529 34.1438C7.50556 30.2393 7.67634 26.2707 8.51927 22.4299C8.73073 21.4857 9.01377 20.5367 9.31617 19.5237C9.36135 19.3731 9.40691 19.2203 9.45282 19.0655C9.65457 19.4628 9.82807 19.7961 10.0232 20.1302L10.073 20.2145C10.4465 20.8856 10.8629 21.5295 11.3196 22.1417C11.9581 22.9599 12.875 23.2069 13.6019 22.7568C14.1758 22.4008 14.6256 21.5512 13.9994 20.3284C13.2908 18.9457 12.3423 17.1332 11.2887 15.3729C10.5067 14.0658 9.52858 13.7119 8.11767 14.2265C5.73819 15.0945 3.45636 16.0272 1.53799 16.8241C0.993652 17.0483 0.525201 17.4368 0.19248 17.9401C-0.0898346 18.4018 -0.0334793 19.1637 0.18041 19.6023C0.468685 20.1961 1.09175 20.3608 1.84753 20.0434C3.32975 19.4201 4.83571 18.8331 6.37619 18.237C6.60487 18.1484 6.85003 18.0754 7.09593 18.0062C5.75697 21.2465 5.01701 24.901 4.83646 29.1585C4.62191 34.2096 5.35489 37.9553 7.21212 41.303C10.4235 47.0901 15.1965 51.2622 21.3988 53.7037C23.2481 54.4266 25.1926 54.8488 27.1641 54.9564C27.6656 54.9855 28.1757 55 28.6803 55C31.5915 54.9841 34.4851 54.5265 37.2707 53.6419C41.9977 52.1875 45.7638 49.8179 48.7841 46.3945C50.2559 44.7268 51.19 43.1489 51.7229 41.4288C51.8781 40.9791 51.971 40.5084 51.999 40.0312C52.0284 38.8231 51.3986 38.4166 50.8647 38.2887Z" fill="#343434"/>
<path d="M59.7402 28.8841C59.4307 28.4676 58.8942 28.2884 58.2677 28.3925C57.5846 28.5045 56.9406 28.9565 56.5201 29.3152C55.8122 29.9199 55.1352 30.5711 54.419 31.2598L54.3947 31.2824C54.3427 31.3323 54.2903 31.382 54.2379 31.4326C54.5135 29.0207 54.4906 26.5829 54.1697 24.1768C53.5262 19.2276 51.2518 14.6525 47.7242 11.2102C44.2022 7.78891 39.6444 5.69635 34.5432 5.1582C29.2936 4.6055 24.0311 5.50241 18.9027 7.82698C17.2863 8.56019 15.4204 9.51741 13.8494 11.0582C13.4246 11.5029 13.0876 12.0276 12.857 12.6034C12.689 12.9942 12.9067 13.7904 13.3252 13.987C13.5374 14.0643 13.7635 14.0929 13.9876 14.0711C14.2117 14.0493 14.4285 13.9775 14.6227 13.8607C14.8717 13.7039 15.1046 13.5216 15.3179 13.3167C15.4653 13.177 15.6222 13.0481 15.7872 12.931C22.253 8.60364 29.1514 7.13499 36.2896 8.564C40.6615 9.44031 44.2293 11.6044 46.8936 14.9956C49.9665 18.9067 51.3896 23.558 51.124 28.8205C51.058 29.7864 50.9431 30.7483 50.7797 31.7018C50.7461 31.9213 50.7127 32.1408 50.6797 32.3605C50.4116 32.0541 50.1362 31.7377 49.8765 31.4152C49.3144 30.7165 48.7554 30.0148 48.1993 29.3101L48.1654 29.2675C47.7683 28.7661 47.3709 28.2647 46.9651 27.7565C46.7903 27.523 46.5931 27.3077 46.3766 27.1141C45.7997 26.6272 45.1299 26.5923 44.5854 27.0205C44.3307 27.2115 44.1535 27.4923 44.0882 27.8089C44.0229 28.1256 44.074 28.4557 44.2315 28.7361C44.4462 29.169 44.6983 29.5813 44.9849 29.9678C46.611 32.1117 48.2076 34.1874 49.5551 35.9351C50.1231 36.6715 50.6574 37 51.288 37C51.7271 36.9805 52.1561 36.8571 52.5408 36.6392C54.9574 35.3822 57.1477 33.7129 59.0182 31.703C59.3433 31.3657 59.6102 30.9742 59.8077 30.5456C60.086 29.9219 60.0613 29.3152 59.7402 28.8841Z" fill="#343434"/>
</g>
<defs>
<clipPath id="clip0_3336_9091">
<rect width="60" height="60" fill="white"/>
</clipPath>
</defs>
</svg>
