<svg width="61" height="60" viewBox="0 0 61 60" fill="none" xmlns="http://www.w3.org/2000/svg">
<g clip-path="url(#clip0_3336_8692)">
<path d="M20.8337 0.671425C27.9704 -0.476027 34.9308 0.185477 41.5189 2.63909C47.3333 4.8043 51.823 8.60336 54.8631 13.9315C57.6255 18.7731 60.2525 24.6959 58.791 31.915C57.9604 36.0181 56.7373 40.3216 53.4419 44.0269C53.4419 44.0269 55.9838 51.9614 56.5911 53.5323C56.73 53.8916 56.8479 54.1703 56.9237 54.5134C57.0904 55.1876 57.2076 55.8759 57.2741 56.5713C57.3376 57.4608 57.0944 58.1821 56.5911 58.6026C56.2877 58.8506 55.9194 58.9803 55.5431 58.9721C55.219 58.9669 54.8985 58.8961 54.5971 58.7634C54.3078 58.632 54.028 58.4764 53.76 58.2974C53.587 58.1885 53.4083 58.0762 53.2307 57.9814C52.5194 57.6041 51.9515 57.1251 51.3064 56.5713C50.2775 55.688 46.6435 52.8696 45.4642 52.2289C45.1738 52.0614 44.8529 51.9699 44.526 51.9614C44.1991 51.9532 43.8747 52.0279 43.5777 52.1805C42.3516 52.7059 41.0849 53.1051 39.7934 53.3732C32.9038 54.7978 25.7943 54.2594 18.6623 51.774C13.2049 49.8719 8.93451 47.0637 5.60709 43.1888C2.35377 39.4003 0.661682 35.1006 0.434502 30.0476C0.0932083 22.4528 2.30401 15.651 7.19331 9.25443C10.8883 4.4208 15.4773 1.53284 20.8337 0.671425ZM51.5863 40.9713C53.2106 38.9424 54.3167 36.4657 54.7895 33.7987C55.1907 31.6801 55.4588 29.5331 55.5919 27.3728C55.6779 26.037 55.5379 24.695 55.1792 23.4167C52.5687 14.6995 47.8285 9.09335 40.6875 6.27802C36.5164 4.6252 32.1208 3.78583 27.6935 3.79682C25.1939 3.8046 22.699 4.04454 20.2352 4.51416C16.7369 5.16877 13.5725 7.12531 10.8296 10.3297C5.62995 16.404 3.3658 22.9991 3.90823 30.4914C4.17733 34.2108 5.54886 37.4551 8.10032 40.4101C10.6077 43.3133 13.7491 45.5012 17.704 47.0983C25.0434 50.0625 32.4098 50.73 39.5978 49.0794C40.701 48.7978 41.7663 48.3564 42.7664 47.7664C44.0054 47.0708 45.3452 46.6482 46.744 48.2505C47.9119 49.588 51.5187 53.0632 53.3823 53.8276C53.4564 54.4297 53.302 53.1832 53.3823 53.8276C52.8273 52.165 50.6929 46.1372 50.4936 44.6643C50.3067 43.2836 50.6442 42.1442 51.5863 40.9713Z" fill="#343434"/>
</g>
<defs>
<clipPath id="clip0_3336_8692">
<rect width="60" height="60" fill="white" transform="translate(0.5)"/>
</clipPath>
</defs>
</svg>
