<svg width="39" height="46" viewBox="0 0 39 46" fill="none" xmlns="http://www.w3.org/2000/svg">
<rect width="39" height="46" rx="10" fill="#343434"/>
<path d="M11.12 34V31.216L20.016 22.768C20.7627 22.064 21.3173 21.4453 21.68 20.912C22.0427 20.3787 22.2773 19.888 22.384 19.44C22.512 18.9707 22.576 18.5333 22.576 18.128C22.576 17.104 22.224 16.3147 21.52 15.76C20.816 15.184 19.7813 14.896 18.416 14.896C17.328 14.896 16.336 15.088 15.44 15.472C14.5653 15.856 13.808 16.4427 13.168 17.232L10.256 14.992C11.1307 13.8187 12.304 12.912 13.776 12.272C15.2693 11.6107 16.9333 11.28 18.768 11.28C20.3893 11.28 21.7973 11.5467 22.992 12.08C24.208 12.592 25.136 13.328 25.776 14.288C26.4373 15.248 26.768 16.3893 26.768 17.712C26.768 18.4373 26.672 19.1627 26.48 19.888C26.288 20.592 25.9253 21.3387 25.392 22.128C24.8587 22.9173 24.08 23.8027 23.056 24.784L15.408 32.048L14.544 30.48H27.632V34H11.12Z" fill="#F2F2F2"/>
</svg>
