<svg width="39" height="46" viewBox="0 0 39 46" fill="none" xmlns="http://www.w3.org/2000/svg">
<rect width="39" height="46" rx="10" fill="#343434"/>
<path d="M18.448 34.32C16.8693 34.32 15.3227 34.096 13.808 33.648C12.3147 33.1787 11.056 32.5387 10.032 31.728L11.824 28.496C12.6347 29.1573 13.616 29.6907 14.768 30.096C15.92 30.5013 17.1253 30.704 18.384 30.704C19.8773 30.704 21.04 30.4053 21.872 29.808C22.704 29.1893 23.12 28.3573 23.12 27.312C23.12 26.288 22.736 25.4773 21.968 24.88C21.2 24.2827 19.9627 23.984 18.256 23.984H16.208V21.136L22.608 13.52L23.152 15.088H11.12V11.6H26.384V14.384L19.984 22L17.808 20.72H19.056C21.808 20.72 23.8667 21.3387 25.232 22.576C26.6187 23.792 27.312 25.36 27.312 27.28C27.312 28.5387 26.992 29.7013 26.352 30.768C25.712 31.8347 24.7307 32.6987 23.408 33.36C22.1067 34 20.4533 34.32 18.448 34.32Z" fill="#F2F2F2"/>
</svg>
