<svg width="232" height="32" viewBox="0 0 232 32" fill="none" xmlns="http://www.w3.org/2000/svg">
<path d="M18.6262 5.95111C22.046 3.19151 25.8894 1.32857 30.0486 0.415539C33.7192 -0.390338 37.1606 -0.0229388 40.277 1.508C43.1087 2.89923 46.1779 4.83567 47.4702 8.65035C48.2047 10.8185 48.7904 13.2023 48.1172 15.954C48.1172 15.954 51.7157 18.853 52.4827 19.3945C52.6582 19.5183 52.7996 19.6112 52.9373 19.7472C53.2171 20.0089 53.4751 20.2926 53.7084 20.5954C53.9955 20.9895 54.0736 21.401 53.9293 21.7536C53.8408 21.9636 53.6844 22.1388 53.4845 22.2523C53.3128 22.351 53.1244 22.418 52.9282 22.4503C52.7389 22.4794 52.5475 22.4942 52.3557 22.4945C52.2338 22.4978 52.108 22.5013 51.9877 22.5126C51.5066 22.5589 51.0717 22.5131 50.575 22.4566C49.7827 22.3665 47.0705 22.1885 46.2685 22.2582C46.0683 22.2708 45.8737 22.3283 45.6996 22.4263C45.5256 22.5245 45.3766 22.6604 45.2642 22.824C44.7703 23.4508 44.2191 24.0316 43.6175 24.5592C40.4065 27.3706 36.52 29.3373 32.0661 30.4052C28.658 31.2222 25.6145 31.2474 22.7619 30.4822C19.9728 29.7341 17.8576 28.2612 16.2967 25.9811C13.9506 22.5538 13.1708 18.6996 13.913 14.1986C14.474 10.7973 16.0596 8.02239 18.6262 5.95111ZM46.2711 15.111C46.5451 13.6604 46.4193 12.1631 45.9066 10.7747C45.5128 9.66389 45.041 8.5813 44.4945 7.53469C44.1586 6.88631 43.7022 6.30556 43.1492 5.8227C39.2914 2.58093 35.203 1.45082 30.6503 2.36795C27.9886 2.89978 25.4412 3.88008 23.1197 5.26594C21.8095 6.0491 20.568 6.93883 19.4083 7.92571C17.7583 9.32129 16.655 11.2185 16.1291 13.5649C15.1319 18.0127 15.8248 21.7874 18.2472 25.1042C19.4497 26.7509 21.0954 27.8326 23.2782 28.4118C25.4231 28.9806 27.6967 29.0189 30.229 28.5286C34.9282 27.6188 38.9865 25.6321 42.2897 22.6223C42.7886 22.1473 43.222 21.6096 43.5788 21.0232C44.0309 20.3132 44.6138 19.6987 45.8055 20.008C46.8003 20.2661 49.6855 20.7581 50.8821 20.5326C50.6561 20.2578 51.0928 20.7896 50.8821 20.5326C50.1164 19.9321 47.2759 17.7932 46.751 17.17C46.259 16.5859 46.1111 15.9505 46.2711 15.111Z" fill="#343434"/>
<path d="M18.147 14.0085C15.4637 13.0835 12.7198 12.7984 9.99234 13.1617C7.5853 13.4823 5.57501 14.4668 4.01743 16.0883C2.60214 17.5618 1.16223 19.4198 1.21405 22.0292C1.24346 23.5122 1.41069 25.0937 2.42346 26.6211C2.42346 26.6211 0.873158 29.1825 0.525913 29.6819C0.446494 29.7961 0.380948 29.884 0.327131 29.9973C0.214512 30.2185 0.120056 30.4484 0.0447184 30.6844C-0.0432764 30.9879 -0.000426412 31.2558 0.164601 31.4387C0.264498 31.5471 0.397942 31.6192 0.544324 31.6442C0.670251 31.6663 0.79948 31.6655 0.925713 31.6418C1.04716 31.6176 1.16668 31.5844 1.28327 31.5422C1.35805 31.5172 1.43529 31.4915 1.51087 31.4718C1.81332 31.3936 2.06748 31.2696 2.35692 31.1254C2.8185 30.8954 4.42735 30.1873 4.92993 30.0525C5.05435 30.0159 5.1852 30.008 5.31248 30.0292C5.43974 30.0505 5.56009 30.1003 5.66427 30.1751C6.10188 30.4478 6.56423 30.6797 7.04551 30.8681C9.61339 31.8708 12.4063 32.2096 15.3467 31.8754C17.5967 31.6197 19.4514 30.9622 21.0167 29.8655C22.5472 28.7932 23.5092 27.4284 23.9573 25.6944C24.6308 23.0881 24.2589 20.568 22.8204 17.9904C21.7332 16.0425 20.161 14.7027 18.147 14.0085Z" fill="#343434"/>
<path d="M64.0562 17.5356V17.5449C64.1242 17.415 64.1922 17.2944 64.2603 17.1831C64.4891 16.7996 65.3117 15.1019 66.728 12.0898C67.3898 10.6735 67.7887 9.84782 67.9248 9.61279C68.0671 9.37777 68.299 9.17367 68.6206 9.00049C68.9422 8.82113 69.2638 8.72526 69.5854 8.71289C70.2349 8.71289 70.6493 8.85205 70.8286 9.13037C71.0142 9.40869 71.2337 10.2591 71.4873 11.6816C71.5801 12.2197 71.6759 12.6743 71.7749 13.0454C71.8553 13.367 71.9017 13.5742 71.9141 13.667C72.2604 15.2565 72.6686 16.7471 73.1387 18.1387C73.6087 19.5303 73.9705 20.39 74.2241 20.7178C74.4035 20.693 74.6107 20.6807 74.8457 20.6807C75.2848 20.6807 75.5786 20.7487 75.7271 20.8848C75.8817 21.0208 75.959 21.293 75.959 21.7012C75.959 22.5856 75.894 23.8906 75.7642 25.6162C75.7147 26.2223 75.6899 26.5532 75.6899 26.6089C75.6899 26.8439 75.5755 27.0697 75.3467 27.2861C75.1178 27.5088 74.8241 27.6201 74.4653 27.6201C74.3107 27.6201 74.1499 27.5675 73.9829 27.4624C73.8221 27.3634 73.7046 27.2676 73.6304 27.1748C73.5623 27.0882 73.5283 26.9181 73.5283 26.6646C73.5283 26.4172 73.5685 25.9162 73.6489 25.1616C73.717 24.4689 73.751 24.0298 73.751 23.8442C73.751 23.1392 73.6829 22.7866 73.5469 22.7866C72.3346 22.7866 68.8371 23.0495 63.0542 23.5752C62.4914 23.6185 62.1976 23.6803 62.1729 23.7607C61.8883 24.6081 61.743 25.4307 61.7368 26.2285V26.7109C61.7368 27.4779 61.3719 27.9015 60.6421 27.9819L60.5493 27.9912C60.2586 28.0221 60.0174 27.951 59.8257 27.7778C59.634 27.6108 59.5381 27.3573 59.5381 27.0171C59.5381 26.6398 59.6401 25.6564 59.8442 24.0669C59.8813 23.7638 59.9061 23.4855 59.9185 23.2319C59.9308 22.8547 60.0081 22.5516 60.1504 22.3228C60.2926 22.0877 60.5833 21.9331 61.0225 21.8589C61.3503 21.7785 61.6286 21.562 61.8574 21.2095C61.9131 21.1229 61.9718 21.0363 62.0337 20.9497C62.3553 20.4549 63.0295 19.3169 64.0562 17.5356ZM64.3252 21.5898L71.543 20.9868C71.3636 20.257 71.1286 19.4715 70.8379 18.6304C70.5472 17.783 70.3493 17.1738 70.2441 16.8027C69.8545 15.4111 69.5731 14.2422 69.3999 13.2959L69.1309 11.9971C69.0381 12.2074 68.5155 13.2804 67.563 15.2163C66.6167 17.146 65.9333 18.4943 65.5127 19.2612C64.7272 20.6776 64.3283 21.4445 64.3159 21.562L64.3252 21.5898ZM84.3086 19.9106C82.6943 22.0444 81.1419 23.1113 79.6514 23.1113C79.0947 23.1113 78.6154 22.8918 78.2134 22.4526C77.8114 22.0135 77.6104 21.4538 77.6104 20.7734C77.6104 19.1344 78.3402 17.3903 79.7998 15.541C81.2594 13.6855 82.7314 12.7578 84.2158 12.7578C84.9704 12.7578 85.4652 13.1382 85.7002 13.8989C86.4115 13.8989 86.7671 14.1711 86.7671 14.7153C86.7671 14.9751 86.6991 15.4451 86.563 16.1255C86.3156 17.3996 86.1919 18.417 86.1919 19.1777C86.1919 19.9694 86.2445 20.526 86.3496 20.8477C86.4609 21.1693 86.5413 21.3796 86.5908 21.4785C86.6403 21.5775 86.7887 21.6826 87.0361 21.7939C87.2835 21.9115 87.4072 22.0754 87.4072 22.2856C87.4072 22.6011 87.2464 22.8639 86.9248 23.0742C86.6094 23.2845 86.2785 23.3896 85.9321 23.3896C85.3507 23.3896 84.9302 23.099 84.6704 22.5176C84.4168 21.9362 84.29 21.2559 84.29 20.4766V20.1982C84.29 20.1055 84.2962 20.0096 84.3086 19.9106ZM83.8076 14.7432C83.1829 14.7432 82.3696 15.4359 81.3677 16.8213C80.3719 18.2005 79.874 19.3726 79.874 20.3374C79.874 20.8446 79.9792 21.0981 80.1895 21.0981C80.9193 21.0981 81.8161 20.4518 82.8799 19.1592C83.9499 17.8604 84.4849 16.7254 84.4849 15.7544C84.4849 15.4451 84.4137 15.2008 84.2715 15.0215C84.1354 14.8359 83.9808 14.7432 83.8076 14.7432ZM95.4321 13.5557C96.0382 13.8649 96.5052 14.3752 96.833 15.0864C97.167 15.7915 97.334 16.611 97.334 17.5449C97.334 19.153 96.8175 20.557 95.7847 21.7568C94.7518 22.9505 93.6323 23.5474 92.4263 23.5474C91.3254 23.5474 90.4595 23.1299 89.8286 22.2949C89.2039 21.46 88.8916 20.2261 88.8916 18.5933C88.8916 16.6698 89.2349 14.7277 89.9214 12.7671C90.6141 10.8065 91.4583 9.33447 92.4541 8.35107C93.4561 7.36149 94.5044 6.8667 95.5991 6.8667C96.3166 6.8667 96.8887 7.09245 97.3154 7.54395C97.7422 7.98926 97.9556 8.59847 97.9556 9.37158C97.9556 9.92822 97.7205 10.5931 97.2505 11.3662C96.7804 12.1331 96.1743 12.863 95.4321 13.5557ZM91.647 14.5205C93.5828 12.9495 94.7549 11.8332 95.1631 11.1714C95.5775 10.5096 95.7847 9.98389 95.7847 9.59424C95.7847 9.07471 95.6239 8.81494 95.3022 8.81494C94.7147 8.81494 94.0776 9.33447 93.3911 10.3735C92.7108 11.4126 92.1294 12.7949 91.647 14.5205ZM94.9961 17.7305C94.9961 17.013 94.891 16.4038 94.6807 15.9028C94.4704 15.4019 94.1673 15.1204 93.7715 15.0586C93.7529 15.0586 93.6323 15.1421 93.4097 15.3091L91.2202 16.9512C91.146 17.4707 91.1089 18.0057 91.1089 18.5562C91.1089 20.5539 91.6006 21.5527 92.584 21.5527C93.2767 21.5527 93.8519 21.1631 94.3096 20.3838C94.7673 19.6045 94.9961 18.7448 94.9961 17.8047V17.7305ZM105.108 19.9106C103.494 22.0444 101.942 23.1113 100.451 23.1113C99.8945 23.1113 99.4152 22.8918 99.0132 22.4526C98.6112 22.0135 98.4102 21.4538 98.4102 20.7734C98.4102 19.1344 99.14 17.3903 100.6 15.541C102.059 13.6855 103.531 12.7578 105.016 12.7578C105.77 12.7578 106.265 13.1382 106.5 13.8989C107.211 13.8989 107.567 14.1711 107.567 14.7153C107.567 14.9751 107.499 15.4451 107.363 16.1255C107.115 17.3996 106.992 18.417 106.992 19.1777C106.992 19.9694 107.044 20.526 107.149 20.8477C107.261 21.1693 107.341 21.3796 107.391 21.4785C107.44 21.5775 107.589 21.6826 107.836 21.7939C108.083 21.9115 108.207 22.0754 108.207 22.2856C108.207 22.6011 108.046 22.8639 107.725 23.0742C107.409 23.2845 107.078 23.3896 106.732 23.3896C106.151 23.3896 105.73 23.099 105.47 22.5176C105.217 21.9362 105.09 21.2559 105.09 20.4766V20.1982C105.09 20.1055 105.096 20.0096 105.108 19.9106ZM104.607 14.7432C103.983 14.7432 103.169 15.4359 102.167 16.8213C101.172 18.2005 100.674 19.3726 100.674 20.3374C100.674 20.8446 100.779 21.0981 100.989 21.0981C101.719 21.0981 102.616 20.4518 103.68 19.1592C104.75 17.8604 105.285 16.7254 105.285 15.7544C105.285 15.4451 105.214 15.2008 105.071 15.0215C104.935 14.8359 104.781 14.7432 104.607 14.7432ZM116.445 19.6045C115.852 20.6868 115.162 21.5465 114.376 22.1836C113.597 22.8206 112.806 23.1392 112.001 23.1392C111.525 23.1392 111.043 22.8887 110.554 22.3877C110.072 21.8867 109.831 21.1167 109.831 20.0776C109.831 19.3416 110.016 18.2314 110.387 16.7471C110.709 15.5225 110.87 14.5916 110.87 13.9546C111.117 13.4351 111.504 13.1753 112.029 13.1753C112.388 13.1753 112.673 13.2959 112.883 13.5371C113.099 13.7721 113.208 14.0103 113.208 14.2515C113.208 14.6906 113.053 15.3153 112.744 16.1255C112.564 16.6079 112.369 17.2913 112.159 18.1758C111.955 19.054 111.853 19.6169 111.853 19.8643C111.853 20.6868 112.023 21.0981 112.363 21.0981C112.901 21.0981 113.628 20.5817 114.543 19.5488C115.459 18.516 116.056 17.4583 116.334 16.376C116.612 15.3184 116.86 14.6257 117.076 14.2979C117.293 13.9701 117.599 13.8062 117.995 13.8062C118.638 13.8062 118.959 14.1649 118.959 14.8823C118.959 14.9875 118.907 15.1978 118.802 15.5132C118.437 16.6079 118.254 17.8418 118.254 19.2148C118.254 20.8229 118.527 21.7847 119.071 22.1001C119.25 22.2052 119.34 22.3351 119.34 22.4897C119.34 22.7124 119.182 22.9227 118.867 23.1206C118.551 23.3185 118.251 23.4175 117.967 23.4175C117.478 23.4175 117.101 23.0742 116.835 22.3877C116.575 21.695 116.445 20.7673 116.445 19.6045ZM119.479 9.20459C119.479 9.3221 119.445 9.47054 119.377 9.6499C119.315 9.82926 119.225 10.021 119.108 10.2251C118.99 10.423 118.845 10.6209 118.672 10.8188C118.505 11.0106 118.316 11.1807 118.106 11.3291H118.115C117.967 11.4281 117.787 11.5208 117.577 11.6074C117.373 11.694 117.157 11.7682 116.928 11.8301C116.699 11.8857 116.467 11.9321 116.232 11.9692C115.997 12.0002 115.777 12.0156 115.573 12.0156C115.221 12.0156 114.881 11.9754 114.553 11.895C114.225 11.8146 113.922 11.7002 113.644 11.5518C113.365 11.4033 113.115 11.2271 112.892 11.0229C112.676 10.8127 112.493 10.5838 112.345 10.3364C112.301 10.256 112.258 10.1632 112.215 10.0581C112.178 9.94678 112.144 9.84163 112.113 9.74268C112.082 9.63753 112.057 9.54476 112.039 9.46436C112.026 9.38395 112.02 9.33138 112.02 9.30664C112.02 9.12109 112.048 8.97266 112.104 8.86133C112.165 8.74382 112.24 8.65413 112.326 8.59229C112.419 8.53044 112.515 8.49023 112.614 8.47168C112.719 8.45312 112.815 8.44385 112.901 8.44385C113.118 8.44385 113.316 8.49642 113.495 8.60156C113.681 8.70052 113.789 8.87988 113.82 9.13965C113.826 9.2819 113.863 9.44271 113.931 9.62207C113.999 9.80143 114.104 9.95605 114.247 10.0859C114.395 10.222 114.59 10.3364 114.831 10.4292C115.072 10.522 115.36 10.5684 115.694 10.5684C115.774 10.5684 115.867 10.5591 115.972 10.5405C116.083 10.522 116.195 10.5003 116.306 10.4756C116.417 10.4447 116.526 10.4076 116.631 10.3643C116.742 10.321 116.835 10.2777 116.909 10.2344C117.033 10.1602 117.138 10.0705 117.225 9.96533C117.311 9.86019 117.385 9.74886 117.447 9.63135C117.509 9.50765 117.562 9.38704 117.605 9.26953C117.648 9.14583 117.685 9.03451 117.716 8.93555C117.747 8.83659 117.797 8.75 117.865 8.67578C117.939 8.60156 118.016 8.53971 118.097 8.49023C118.183 8.44076 118.27 8.40365 118.356 8.37891C118.449 8.35417 118.533 8.3418 118.607 8.3418C118.867 8.3418 119.077 8.40365 119.238 8.52734C119.399 8.65104 119.479 8.87679 119.479 9.20459ZM136.883 21.6455C136.586 21.0889 136.37 20.0498 136.234 18.5283C136.098 16.945 135.795 16.1533 135.325 16.1533C134.879 16.1533 134.109 16.979 133.015 18.6304C131.92 20.2756 131.246 21.4909 130.992 22.2764C130.937 22.5114 130.831 22.7062 130.677 22.8608C130.528 23.0155 130.38 23.0928 130.231 23.0928C129.291 23.0928 128.821 22.6629 128.821 21.8032C128.821 21.5125 128.914 20.8507 129.1 19.8179C129.341 18.4819 129.461 16.8491 129.461 14.9194C129.461 14.6287 129.588 14.3195 129.842 13.9917C130.095 13.6577 130.364 13.4907 130.649 13.4907C131.008 13.4907 131.283 13.5804 131.475 13.7598C131.666 13.9391 131.762 14.4154 131.762 15.1885C131.762 15.776 131.586 16.9141 131.233 18.6025C132.576 15.4606 134.072 13.8896 135.724 13.8896C137.159 13.8896 138 15.0184 138.247 17.2759C138.494 19.5767 138.779 20.7271 139.101 20.7271C139.243 20.7271 139.407 20.6961 139.592 20.6343C139.815 20.5601 139.991 20.5229 140.121 20.5229C140.418 20.5229 140.566 20.6961 140.566 21.0425C140.566 21.3579 140.362 21.695 139.954 22.0537C139.546 22.4062 139.033 22.5825 138.414 22.5825C137.697 22.5825 137.183 22.2702 136.874 21.6455H136.883ZM150.419 18.2964C150.005 19.7437 149.216 20.9652 148.053 21.9609C146.897 22.9505 145.74 23.4453 144.583 23.4453C143.668 23.4453 142.914 23.1113 142.32 22.4434C141.726 21.7692 141.429 20.9435 141.429 19.9663C141.429 18.3706 141.973 16.7996 143.062 15.2534C144.151 13.7072 145.471 12.9341 147.023 12.9341C148.081 12.9341 148.938 13.3268 149.593 14.1123C150.249 14.8916 150.577 15.8224 150.577 16.9048C150.577 17.3748 150.524 17.8356 150.419 18.2871V18.2964ZM145.595 15.3647C145.162 15.7482 144.738 16.3605 144.324 17.2017C143.909 18.0428 143.702 18.887 143.702 19.7344C143.702 20.2477 143.795 20.6714 143.98 21.0054C144.172 21.3394 144.423 21.5063 144.732 21.5063C145.499 21.5063 146.297 21.0518 147.125 20.1426C147.954 19.2334 148.369 18.2129 148.369 17.0811C148.369 16.444 148.233 15.9214 147.96 15.5132C147.694 15.0988 147.32 14.8916 146.838 14.8916C146.38 14.8916 145.969 15.0493 145.604 15.3647H145.595ZM154.482 20.9312C154.482 21.1043 154.581 21.259 154.779 21.395C154.977 21.5249 155.153 21.5898 155.308 21.5898C156.39 21.5898 157.324 21.4043 158.11 21.0332C158.58 20.7982 158.932 20.6807 159.167 20.6807C159.576 20.6807 159.78 20.8971 159.78 21.3301C159.78 21.9115 159.313 22.4032 158.379 22.8052C157.451 23.201 156.313 23.3989 154.965 23.3989C154.148 23.3989 153.45 23.1639 152.868 22.6938C152.287 22.2176 151.996 21.6115 151.996 20.8755C151.996 20.2508 152.2 19.6323 152.608 19.02C153.017 18.4015 154.031 17.6624 155.651 16.8027C156.4 16.4131 156.885 16.1224 157.108 15.9307C157.337 15.7389 157.451 15.5441 157.451 15.3462C157.451 15.1854 157.383 15.0555 157.247 14.9565C157.117 14.8514 157.018 14.7988 156.95 14.7988C156.561 14.7988 155.744 15.0648 154.501 15.5967C154.371 15.6523 154.244 15.6802 154.121 15.6802C153.533 15.6802 153.239 15.4854 153.239 15.0957C153.239 14.4463 153.756 13.9175 154.789 13.5093C155.821 13.0949 156.712 12.8877 157.46 12.8877C158.116 12.8877 158.694 13.1042 159.195 13.5371C159.696 13.9701 159.947 14.4927 159.947 15.105C159.947 15.6554 159.749 16.1842 159.353 16.6914C158.963 17.1924 158.122 17.7985 156.83 18.5098C155.927 19.0107 155.308 19.4468 154.974 19.8179C154.646 20.1828 154.482 20.5539 154.482 20.9312ZM170.31 18.2964C169.895 19.7437 169.107 20.9652 167.944 21.9609C166.787 22.9505 165.631 23.4453 164.474 23.4453C163.559 23.4453 162.804 23.1113 162.21 22.4434C161.617 21.7692 161.32 20.9435 161.32 19.9663C161.32 18.3706 161.864 16.7996 162.953 15.2534C164.041 13.7072 165.362 12.9341 166.914 12.9341C167.972 12.9341 168.828 13.3268 169.484 14.1123C170.139 14.8916 170.467 15.8224 170.467 16.9048C170.467 17.3748 170.415 17.8356 170.31 18.2871V18.2964ZM165.485 15.3647C165.052 15.7482 164.629 16.3605 164.214 17.2017C163.8 18.0428 163.593 18.887 163.593 19.7344C163.593 20.2477 163.686 20.6714 163.871 21.0054C164.063 21.3394 164.313 21.5063 164.623 21.5063C165.389 21.5063 166.187 21.0518 167.016 20.1426C167.845 19.2334 168.259 18.2129 168.259 17.0811C168.259 16.444 168.123 15.9214 167.851 15.5132C167.585 15.0988 167.211 14.8916 166.729 14.8916C166.271 14.8916 165.86 15.0493 165.495 15.3647H165.485ZM178.557 13.5557C179.163 13.8649 179.63 14.3752 179.958 15.0864C180.292 15.7915 180.459 16.611 180.459 17.5449C180.459 19.153 179.943 20.557 178.91 21.7568C177.877 22.9505 176.757 23.5474 175.551 23.5474C174.45 23.5474 173.584 23.1299 172.954 22.2949C172.329 21.46 172.017 20.2261 172.017 18.5933C172.017 16.6698 172.36 14.7277 173.046 12.7671C173.739 10.8065 174.583 9.33447 175.579 8.35107C176.581 7.36149 177.629 6.8667 178.724 6.8667C179.442 6.8667 180.014 7.09245 180.44 7.54395C180.867 7.98926 181.081 8.59847 181.081 9.37158C181.081 9.92822 180.846 10.5931 180.375 11.3662C179.905 12.1331 179.299 12.863 178.557 13.5557ZM174.772 14.5205C176.708 12.9495 177.88 11.8332 178.288 11.1714C178.702 10.5096 178.91 9.98389 178.91 9.59424C178.91 9.07471 178.749 8.81494 178.427 8.81494C177.84 8.81494 177.203 9.33447 176.516 10.3735C175.836 11.4126 175.254 12.7949 174.772 14.5205ZM178.121 17.7305C178.121 17.013 178.016 16.4038 177.806 15.9028C177.595 15.4019 177.292 15.1204 176.896 15.0586C176.878 15.0586 176.757 15.1421 176.535 15.3091L174.345 16.9512C174.271 17.4707 174.234 18.0057 174.234 18.5562C174.234 20.5539 174.726 21.5527 175.709 21.5527C176.402 21.5527 176.977 21.1631 177.435 20.3838C177.892 19.6045 178.121 18.7448 178.121 17.8047V17.7305ZM190.701 18.2964C190.287 19.7437 189.498 20.9652 188.335 21.9609C187.179 22.9505 186.022 23.4453 184.866 23.4453C183.95 23.4453 183.196 23.1113 182.602 22.4434C182.008 21.7692 181.711 20.9435 181.711 19.9663C181.711 18.3706 182.256 16.7996 183.344 15.2534C184.433 13.7072 185.753 12.9341 187.306 12.9341C188.363 12.9341 189.22 13.3268 189.875 14.1123C190.531 14.8916 190.859 15.8224 190.859 16.9048C190.859 17.3748 190.806 17.8356 190.701 18.2871V18.2964ZM185.877 15.3647C185.444 15.7482 185.02 16.3605 184.606 17.2017C184.192 18.0428 183.984 18.887 183.984 19.7344C183.984 20.2477 184.077 20.6714 184.263 21.0054C184.454 21.3394 184.705 21.5063 185.014 21.5063C185.781 21.5063 186.579 21.0518 187.408 20.1426C188.236 19.2334 188.651 18.2129 188.651 17.0811C188.651 16.444 188.515 15.9214 188.243 15.5132C187.977 15.0988 187.603 14.8916 187.12 14.8916C186.662 14.8916 186.251 15.0493 185.886 15.3647H185.877ZM194.848 22.397C194.724 22.8979 194.57 23.8195 194.384 25.1616C194.199 26.5099 194.087 27.4129 194.05 27.8706C194.013 28.3345 193.852 28.7272 193.568 29.0488C193.29 29.3704 193.039 29.5312 192.816 29.5312C192.538 29.5312 192.263 29.4261 191.991 29.2158C191.719 29.0055 191.583 28.7767 191.583 28.5293C191.583 28.0283 191.66 27.45 191.814 26.7944C192.742 23.0897 193.249 19.2705 193.336 15.3369V15.1514C193.336 14.3844 193.361 13.868 193.41 13.6021C193.46 13.3299 193.614 13.0701 193.874 12.8228C194.134 12.5754 194.44 12.4517 194.792 12.4517C195.089 12.4517 195.331 12.5846 195.516 12.8506C195.708 13.1165 195.804 13.5 195.804 14.001C195.804 14.5081 195.711 15.3957 195.525 16.6636C196.212 15.5194 197.031 14.5731 197.984 13.8247C198.943 13.0701 199.815 12.6929 200.6 12.6929C201.293 12.6929 201.88 12.9403 202.363 13.4351C202.851 13.9299 203.096 14.5514 203.096 15.2998C203.096 17.2975 202.319 19.1159 200.767 20.7549C199.221 22.3877 197.69 23.2041 196.175 23.2041C195.47 23.2041 195.028 22.9351 194.848 22.397ZM200.238 14.7988C199.484 14.7988 198.503 15.5348 197.297 17.0068C196.097 18.4788 195.498 19.6354 195.498 20.4766C195.498 20.693 195.603 20.8879 195.813 21.061C196.029 21.228 196.28 21.3115 196.564 21.3115C197.35 21.3115 198.25 20.6961 199.264 19.4653C200.285 18.2284 200.795 17.0347 200.795 15.8843C200.795 15.5008 200.736 15.2256 200.619 15.0586C200.501 14.8854 200.374 14.7988 200.238 14.7988ZM211.417 19.6045C210.824 20.6868 210.134 21.5465 209.349 22.1836C208.569 22.8206 207.778 23.1392 206.974 23.1392C206.497 23.1392 206.015 22.8887 205.526 22.3877C205.044 21.8867 204.803 21.1167 204.803 20.0776C204.803 19.3416 204.988 18.2314 205.359 16.7471C205.681 15.5225 205.842 14.5916 205.842 13.9546C206.089 13.4351 206.476 13.1753 207.001 13.1753C207.36 13.1753 207.645 13.2959 207.855 13.5371C208.071 13.7721 208.18 14.0103 208.18 14.2515C208.18 14.6906 208.025 15.3153 207.716 16.1255C207.536 16.6079 207.342 17.2913 207.131 18.1758C206.927 19.054 206.825 19.6169 206.825 19.8643C206.825 20.6868 206.995 21.0981 207.335 21.0981C207.874 21.0981 208.6 20.5817 209.516 19.5488C210.431 18.516 211.028 17.4583 211.306 16.376C211.584 15.3184 211.832 14.6257 212.048 14.2979C212.265 13.9701 212.571 13.8062 212.967 13.8062C213.61 13.8062 213.932 14.1649 213.932 14.8823C213.932 14.9875 213.879 15.1978 213.774 15.5132C213.409 16.6079 213.227 17.8418 213.227 19.2148C213.227 20.8229 213.499 21.7847 214.043 22.1001C214.222 22.2052 214.312 22.3351 214.312 22.4897C214.312 22.7124 214.154 22.9227 213.839 23.1206C213.523 23.3185 213.223 23.4175 212.939 23.4175C212.45 23.4175 212.073 23.0742 211.807 22.3877C211.547 21.695 211.417 20.7673 211.417 19.6045ZM216.093 22.3413C216.638 21.797 217.271 20.6745 217.995 18.9736C218.094 18.7448 218.205 18.5067 218.329 18.2593C218.447 18.0119 218.549 17.7676 218.635 17.5264C218.685 17.4027 218.74 17.2759 218.802 17.146C219.025 16.6636 219.248 16.042 219.47 15.2812C219.693 14.5205 219.832 13.9824 219.888 13.667C219.98 13.1351 220.382 12.8691 221.094 12.8691C221.551 12.8691 221.833 12.9495 221.938 13.1104C222.049 13.2712 222.167 13.466 222.291 13.6948C222.414 13.9237 222.56 14.5236 222.727 15.4946C222.9 16.4595 223.036 17.279 223.135 17.9531C223.258 18.7572 223.469 19.5952 223.766 20.4673C224.526 18.7108 225.204 17.2233 225.797 16.0049C226.397 14.7803 226.877 13.8711 227.235 13.2773C227.6 12.6836 227.86 12.3187 228.015 12.1826C228.175 12.0404 228.336 11.9692 228.497 11.9692C228.794 11.9692 229.116 12.0558 229.462 12.229C229.808 12.4022 230.009 12.5754 230.065 12.7485C230.127 13.5835 230.195 15.1483 230.269 17.4429C230.3 18.2655 230.353 18.9984 230.427 19.6416C230.501 20.2848 230.634 20.8198 230.826 21.2466C231.092 21.7785 231.225 22.2331 231.225 22.6104C231.225 22.9134 231.104 23.1639 230.863 23.3618C230.622 23.5597 230.278 23.6587 229.833 23.6587C229.184 23.6587 228.754 23.2165 228.543 22.332C228.339 21.4476 228.237 19.8797 228.237 17.6284C228.237 17.2944 228.268 16.6574 228.33 15.7173L228.358 15.1235C227.504 16.7625 226.784 18.2314 226.196 19.5303C225.392 21.3053 224.842 22.3815 224.545 22.7588C224.248 23.1361 223.923 23.3247 223.571 23.3247H223.422C222.971 23.3247 222.628 23.2103 222.393 22.9814C222.158 22.7526 221.901 22.0754 221.623 20.9497C221.344 19.8179 221.137 18.7231 221.001 17.6655C220.939 17.2326 220.883 16.945 220.834 16.8027C220.587 17.6934 220.429 18.2222 220.361 18.3892C220.348 18.4139 220.327 18.4727 220.296 18.5654C220.11 19.1344 219.823 19.8581 219.433 20.7363C219.05 21.6084 218.694 22.2949 218.366 22.7959C218.038 23.2907 217.788 23.5938 217.615 23.7051C217.442 23.8226 217.237 23.8813 217.002 23.8813C216.749 23.8813 216.498 23.7824 216.251 23.5845C216.004 23.3927 215.88 23.1732 215.88 22.9258C215.88 22.7031 215.945 22.5145 216.075 22.3599L216.093 22.3413Z" fill="#343434"/>
</svg>
