<svg width="32" height="32" viewBox="0 0 32 32" fill="none" xmlns="http://www.w3.org/2000/svg">
<mask id="path-1-inside-1_3508_1210" fill="white">
<path d="M15.9865 2.66797C8.6265 2.66797 2.6665 8.6413 2.6665 16.0013C2.6665 23.3613 8.6265 29.3346 15.9865 29.3346C23.3598 29.3346 29.3332 23.3613 29.3332 16.0013C29.3332 8.6413 23.3598 2.66797 15.9865 2.66797ZM15.9998 26.668C10.1065 26.668 5.33317 21.8946 5.33317 16.0013C5.33317 10.108 10.1065 5.33464 15.9998 5.33464C21.8932 5.33464 26.6665 10.108 26.6665 16.0013C26.6665 21.8946 21.8932 26.668 15.9998 26.668ZM16.6665 9.33464H14.6665V17.3346L21.6665 21.5346L22.6665 19.8946L16.6665 16.3346V9.33464Z"/>
</mask>
<path d="M15.9865 2.66797C8.6265 2.66797 2.6665 8.6413 2.6665 16.0013C2.6665 23.3613 8.6265 29.3346 15.9865 29.3346C23.3598 29.3346 29.3332 23.3613 29.3332 16.0013C29.3332 8.6413 23.3598 2.66797 15.9865 2.66797ZM15.9998 26.668C10.1065 26.668 5.33317 21.8946 5.33317 16.0013C5.33317 10.108 10.1065 5.33464 15.9998 5.33464C21.8932 5.33464 26.6665 10.108 26.6665 16.0013C26.6665 21.8946 21.8932 26.668 15.9998 26.668ZM16.6665 9.33464H14.6665V17.3346L21.6665 21.5346L22.6665 19.8946L16.6665 16.3346V9.33464Z" fill="#343434"/>
<path d="M16.6665 9.33464H22.9165V3.08464H16.6665V9.33464ZM14.6665 9.33464V3.08464H8.4165V9.33464H14.6665ZM14.6665 17.3346H8.4165V20.8733L11.4509 22.694L14.6665 17.3346ZM21.6665 21.5346L18.4509 26.894L23.7721 30.0867L27.0027 24.7884L21.6665 21.5346ZM22.6665 19.8946L28.0027 23.1484L31.296 17.7475L25.8557 14.5196L22.6665 19.8946ZM16.6665 16.3346H10.4165V19.8936L13.4773 21.7097L16.6665 16.3346ZM15.9865 -3.58203C5.16658 -3.58203 -3.5835 5.19767 -3.5835 16.0013H8.9165C8.9165 12.0849 12.0864 8.91797 15.9865 8.91797V-3.58203ZM-3.5835 16.0013C-3.5835 26.8049 5.16658 35.5846 15.9865 35.5846V23.0846C12.0864 23.0846 8.9165 19.9177 8.9165 16.0013H-3.5835ZM15.9865 35.5846C26.8075 35.5846 35.5832 26.8172 35.5832 16.0013H23.0832C23.0832 19.9055 19.9121 23.0846 15.9865 23.0846V35.5846ZM35.5832 16.0013C35.5832 5.18546 26.8075 -3.58203 15.9865 -3.58203V8.91797C19.9121 8.91797 23.0832 12.0971 23.0832 16.0013H35.5832ZM15.9998 20.418C13.5583 20.418 11.5832 18.4429 11.5832 16.0013H-0.916829C-0.916829 25.3464 6.65472 32.918 15.9998 32.918V20.418ZM11.5832 16.0013C11.5832 13.5597 13.5583 11.5846 15.9998 11.5846V-0.915365C6.65472 -0.915365 -0.916829 6.65619 -0.916829 16.0013H11.5832ZM15.9998 11.5846C18.4414 11.5846 20.4165 13.5597 20.4165 16.0013H32.9165C32.9165 6.65619 25.345 -0.915365 15.9998 -0.915365V11.5846ZM20.4165 16.0013C20.4165 18.4429 18.4414 20.418 15.9998 20.418V32.918C25.345 32.918 32.9165 25.3464 32.9165 16.0013H20.4165ZM16.6665 3.08464H14.6665V15.5846H16.6665V3.08464ZM8.4165 9.33464V17.3346H20.9165V9.33464H8.4165ZM11.4509 22.694L18.4509 26.894L24.8821 16.1753L17.8821 11.9753L11.4509 22.694ZM27.0027 24.7884L28.0027 23.1484L17.3303 16.6408L16.3303 18.2808L27.0027 24.7884ZM25.8557 14.5196L19.8557 10.9596L13.4773 21.7097L19.4773 25.2697L25.8557 14.5196ZM22.9165 16.3346V9.33464H10.4165V16.3346H22.9165Z" fill="#343434" mask="url(#path-1-inside-1_3508_1210)"/>
</svg>
