<svg width="32" height="32" viewBox="0 0 32 32" fill="none" xmlns="http://www.w3.org/2000/svg">
<path d="M28 26.6679C28 24.3457 25.7738 22.3702 22.6667 21.638M20 26.668C20 23.7225 16.4183 21.3346 12 21.3346C7.58172 21.3346 4 23.7225 4 26.668M20 17.3346C22.9455 17.3346 25.3333 14.9468 25.3333 12.0013C25.3333 9.05578 22.9455 6.66797 20 6.66797M12 17.3346C9.05448 17.3346 6.66667 14.9468 6.66667 12.0013C6.66667 9.05578 9.05448 6.66797 12 6.66797C14.9455 6.66797 17.3333 9.05578 17.3333 12.0013C17.3333 14.9468 14.9455 17.3346 12 17.3346Z" stroke="#343434" stroke-width="2" stroke-linecap="round" stroke-linejoin="round"/>
</svg>
