<svg width="32" height="32" viewBox="0 0 32 32" fill="none" xmlns="http://www.w3.org/2000/svg">
<path d="M28 26.6669C28 24.3447 25.7738 22.3692 22.6667 21.637M20 26.667C20 23.7215 16.4183 21.3337 12 21.3337C7.58172 21.3337 4 23.7215 4 26.667M20 17.3337C22.9455 17.3337 25.3333 14.9458 25.3333 12.0003C25.3333 9.05481 22.9455 6.66699 20 6.66699M12 17.3337C9.05448 17.3337 6.66667 14.9458 6.66667 12.0003C6.66667 9.05481 9.05448 6.66699 12 6.66699C14.9455 6.66699 17.3333 9.05481 17.3333 12.0003C17.3333 14.9458 14.9455 17.3337 12 17.3337Z" stroke="#212028" stroke-width="2" stroke-linecap="round" stroke-linejoin="round"/>
</svg>
